<?xml version="1.0" encoding="UTF-8" standalone="no"?>
<svg
   version="1.1"
   width="312px"
   height="370px"
   style="shape-rendering:geometricPrecision; text-rendering:geometricPrecision; image-rendering:optimizeQuality; fill-rule:evenodd; clip-rule:evenodd"
   id="svg186"
   sodipodi:docname="HaruNeko_mirror_2 - Copie.svg"
   inkscape:version="1.2.1 (9c6d41e410, 2022-07-14)"
   xmlns:inkscape="http://www.inkscape.org/namespaces/inkscape"
   xmlns:sodipodi="http://sodipodi.sourceforge.net/DTD/sodipodi-0.dtd"
   xmlns="http://www.w3.org/2000/svg"
   xmlns:svg="http://www.w3.org/2000/svg">
  <defs
     id="defs190" />
  <sodipodi:namedview
     id="namedview188"
     pagecolor="#ffffff"
     bordercolor="#000000"
     borderopacity="0.25"
     inkscape:showpageshadow="2"
     inkscape:pageopacity="0.0"
     inkscape:pagecheckerboard="0"
     inkscape:deskcolor="#d1d1d1"
     showgrid="false"
     inkscape:zoom="3.1991804"
     inkscape:cx="133.3154"
     inkscape:cy="280.22802"
     inkscape:window-width="1920"
     inkscape:window-height="1018"
     inkscape:window-x="1529"
     inkscape:window-y="-6"
     inkscape:window-maximized="1"
     inkscape:current-layer="svg186" />
  <path
     style="clip-rule:evenodd;display:inline;opacity:1;fill-rule:evenodd;stroke-width:1.00234;image-rendering:optimizeQuality;shape-rendering:geometricPrecision;text-rendering:geometricPrecision"
     fill="#3172ab"
     d="m -0.5,-0.5 c 104.31258,0 208.62516,0 312.93774,0 0,123.54138 0,247.08378 0,370.62516 -104.31258,0 -208.62516,0 -312.93774,0 0,-123.54138 0,-247.08378 0,-370.62516 z"
     id="path2"
     inkscape:label="back"
     sodipodi:insensitive="true" />
  <ellipse
     style="shape-rendering:geometricPrecision;text-rendering:geometricPrecision;image-rendering:optimizeQuality;fill-rule:evenodd;clip-rule:evenodd;display:inline;fill:#3b5e7d;fill-opacity:1;stroke-width:0.841484"
     id="path471"
     cx="140.66103"
     cy="356.9664"
     rx="127.53266"
     ry="8.7522421"
     inkscape:label="shadow" />
  <g
     id="g8"
     inkscape:label="head">
    <path
       style="clip-rule:evenodd;opacity:1;fill-rule:evenodd;image-rendering:optimizeQuality;shape-rendering:geometricPrecision;text-rendering:geometricPrecision"
       fill="#b1ced8"
       d="m 217.5,7.5 c 3.121,-1.36425 5.954,-0.69758 8.5,2 5.216,8.7647 9.049,18.098 11.5,28 -12.2174,-0.632821 -19.68216,-23.203871 -20,-30 z"
       id="path10"
       sodipodi:nodetypes="cccc" />
    <path
       style="clip-rule:evenodd;opacity:1;fill-rule:evenodd;image-rendering:optimizeQuality;shape-rendering:geometricPrecision;text-rendering:geometricPrecision"
       fill="#afcbd7"
       d="m 80.5,5.5 c 0.693037,10.852577 -8.708729,30.073717 -19,30 2.6542,-11.1386 7.3209,-21.3053 14,-30.5 1.8869,-0.77961 3.5536,-0.61295 5,0.5 z"
       id="path14"
       sodipodi:nodetypes="cccc" />
    <path
       style="opacity:1"
       fill="#fbfbfa"
       d="m 80.5,5.5 c 2.1125,0.93961 4.1125,2.10628 6,3.5 12.065,11.3957 23.398,23.3957 34,36 9.585,-1.2379 19.251,-2.0713 29,-2.5 9.121,0.0946 17.954,1.7613 26.5,5 0.833,-0.1667 1.667,-0.3333 2.5,-0.5 11.837,-14.337 24.837,-27.5037 39,-39.5 2.825,-0.33839 4.992,0.66161 6.5,3 4.546,9.0919 9.046,18.0919 13.5,27 9.033,25.6565 13.366,52.1565 13,79.5 0.116,10.223 -0.551,20.39 -2,30.5 2,4.667 4,9.333 6,14 -0.14,1.53 -1.57145,5.52829 -2.93937,8.02837 -2.42785,4.43727 -5.12426,9.06417 -9.18727,12.07677 C 237.83951,184.96686 231.438,186.093 226.5,187.5 c -17.224,7.472 -35.224,11.806 -54,13 -8.485,0.673 -15.985,-1.66 -22.5,-7 -3.437,2.467 -7.27,3.967 -11.5,4.5 -31.08466,11.32465 -58.740523,-10.53763 -78,-17.5 -0.1107,-0.617 -4.39312,-1.36263 -6.083632,-2.82616 -3.03718,-2.62938 -4.719247,-6.53526 -6.590203,-10.09021 C 46.469143,165.0052 44.6399,161.03 44.5,159.5 c 2,-4.667 4,-9.333 6,-14 -4.3228,-34.366 -1.6562,-68.0325 8,-101 1.517986,-5.273908 2.830921,-8.67819 3,-9 4.3846,-8.9398 8.8846,-17.9398 13.5,-27 1.1861,-2.17655 3.0194,-3.17655 5.5,-3 z"
       id="path6"
       inkscape:label="head"
       sodipodi:nodetypes="ccccccccccccaacccccaacccccc" />
  </g>
  <g
     id="g24"
     inkscape:label="left-ear-mark">
    <path
       style="opacity:1"
       fill="#b6bdbf"
       d="M 86.5,42.5 C 92.1695,44.0568 97.5028,46.3901 102.5,49.5C 101.126,50.7113 99.6255,51.7113 98,52.5C 89.7711,48.6999 81.2711,46.0333 72.5,44.5C 77.3696,44.3104 82.0363,43.6437 86.5,42.5 Z"
       id="path22"
       inkscape:label="inside" />
    <path
       style="shape-rendering:geometricPrecision;text-rendering:geometricPrecision;image-rendering:optimizeQuality;fill-rule:evenodd;clip-rule:evenodd;opacity:1"
       fill="#88959d"
       d="M 60.5,36.5 C 60.5774,37.7498 61.244,38.5831 62.5,39C 70.5757,39.7157 78.5757,40.8823 86.5,42.5C 82.0363,43.6437 77.3696,44.3104 72.5,44.5C 67.8333,44.5 63.1667,44.5 58.5,44.5C 58.9628,41.6697 59.6295,39.003 60.5,36.5 Z"
       id="path18"
       inkscape:label="outside" />
  </g>
  <g
     id="g32"
     inkscape:label="ears">
    <path
       style="opacity:1"
       fill="#db9e96"
       d="M 64.5,45.5 C 67.7845,45.2693 70.2845,46.6026 72,49.5C 77.9159,55.584 82.4159,62.584 85.5,70.5C 85.3333,71.1667 85.1667,71.8333 85,72.5C 76.9821,78.9291 69.4821,85.9291 62.5,93.5C 60.8067,77.3674 61.4733,61.3674 64.5,45.5 Z"
       id="path30"
       inkscape:label="left" />
    <path
       style="shape-rendering:geometricPrecision;text-rendering:geometricPrecision;image-rendering:optimizeQuality;fill-rule:evenodd;clip-rule:evenodd;opacity:1"
       fill="#db9c95"
       d="M 230.5,47.5 C 232.144,47.2865 233.644,47.6198 235,48.5C 237.548,64.0953 238.048,79.762 236.5,95.5C 230.278,88.1096 223.278,81.6096 215.5,76C 214.196,75.196 213.529,74.0293 213.5,72.5C 217.984,63.3516 223.651,55.0183 230.5,47.5 Z"
       id="path26"
       inkscape:label="right" />
  </g>
  <g
     id="g60"
     inkscape:label="right-eye">
    <path
       style="shape-rendering:geometricPrecision;text-rendering:geometricPrecision;image-rendering:optimizeQuality;fill-rule:evenodd;clip-rule:evenodd;opacity:1"
       fill="#adb8be"
       d="m 193.5,116.5 c 11.44708,26.34761 -9.32213,31.56778 -12,36 v 1 c -8.199,-1.03 -13.032,-5.697 -14.5,-14 -3.428,-21.737 5.405,-29.403 26.5,-23 z"
       id="path34"
       sodipodi:nodetypes="ccccc"
       inkscape:label="back3" />
    <path
       style="shape-rendering:geometricPrecision;text-rendering:geometricPrecision;image-rendering:optimizeQuality;fill-rule:evenodd;clip-rule:evenodd;opacity:1"
       fill="#c7ccd2"
       d="m 193.5,116.5 c 5.977,1.268 15.23447,4.81665 16.5,7 0.77508,2.43275 -2.054,7.422 -6.5,9 -0.672,1.449 -2,4 -2,4 0,0 -1.77424,-0.88184 -8,-20 z"
       id="path42"
       sodipodi:nodetypes="ccccc"
       inkscape:label="back2" />
    <path
       style="shape-rendering:geometricPrecision;text-rendering:geometricPrecision;image-rendering:optimizeQuality;fill-rule:evenodd;clip-rule:evenodd;opacity:1"
       fill="#8c949e"
       d="m 187.61051,119.16308 c -8.898,-0.106 -11.7997,4.66906 -13.5687,13.44206 -0.802,1.452 -3.84381,2.01286 -4.04181,3.89486 -0.667,-3.667 -0.667,-7.333 0,-11 4.132,-8.005 10.632,-10.838 19.5,-8.5 -0.916,0.278 -1.47149,1.44108 -1.88949,2.16308 z"
       id="path46"
       sodipodi:nodetypes="cccccc"
       inkscape:label="back1" />
    <path
       style="opacity:1"
       fill="#171220"
       d="m 187.5,118.5 c 4.847,0.842 8.847,3.175 12,7 1.48049,2.57689 2.258,7.128 2,11 -0.3846,3.16351 -1.17933,6.54402 -2.99462,9.21565 -1.50756,2.21873 -3.75198,4.03311 -6.19954,5.13082 -3.3248,1.49115 -7.32422,2.72878 -10.80584,1.65353 -3.26744,-1.0091 -5.785,-3.783 -7.5,-7 -1.975,-4.463 -2.808,-9.129 -2.5,-14 1.769,-8.773 7.102,-13.106 16,-13 z"
       id="path58"
       sodipodi:nodetypes="cccaaaccc"
       inkscape:label="pupil" />
  </g>
  <g
     id="g56"
     style="shape-rendering:geometricPrecision;text-rendering:geometricPrecision;image-rendering:optimizeQuality;fill-rule:evenodd;clip-rule:evenodd"
     inkscape:label="left-eye">
    <path
       style="shape-rendering:geometricPrecision;text-rendering:geometricPrecision;image-rendering:optimizeQuality;fill-rule:evenodd;clip-rule:evenodd;opacity:1"
       fill="#c4c8ce"
       d="m 105.5,116.5 c -4.93321,5.62 -1.99531,15.31855 -6.894863,20.7736 C 97.943737,136.0556 96.1719,133.949 95.5,132.5 c -4.4016,-1.545 -6.5683,-4.545 -6.5,-9 5.0348,-3.401 10.5348,-5.735 16.5,-7 z"
       id="path38"
       sodipodi:nodetypes="ccccc"
       inkscape:label="back3" />
    <path
       style="shape-rendering:geometricPrecision;text-rendering:geometricPrecision;image-rendering:optimizeQuality;fill-rule:evenodd;clip-rule:evenodd;opacity:1"
       fill="#b6c2c4"
       d="m 109.5,115.5 c 6.025,-1.498 12.025,-0.998 18,1.5 3.45989,3.53846 5.01638,8.26095 5,14.5 0.355,16.994 -6.09781,22.66929 -15.71147,22.33154 C 115.18813,147.53041 109.43812,120.02848 109.5,115.5 Z"
       id="path66"
       sodipodi:nodetypes="ccccc"
       inkscape:label="back2" />
    <path
       style="shape-rendering:geometricPrecision;text-rendering:geometricPrecision;image-rendering:optimizeQuality;fill-rule:evenodd;clip-rule:evenodd;opacity:1"
       fill="#9ca4ae"
       d="m 122.5,117 c 8.825,9.042 10.325,19.209 4.5,30.5 -1.011,0.837 -2.178,1.17 -3.5,1 5.448,-8.82 5.281,-17.486 -0.5,-26 -7.465,-5.559 -14.632,-5.226 -21.5,1 -0.157,-1.373 0.01,-2.707 0.5,-4 1.518,-0.663 2.92966,-3.28745 4.93668,-3.88411 4.99231,-1.48415 10.9495,-0.0795 15.56332,1.38411 z"
       id="path70"
       sodipodi:nodetypes="ccccccac"
       inkscape:label="back1" />
    <path
       style="opacity:1"
       fill="#18131f"
       d="m 123.5,148.5 c -1.872,2.104 -4.205,3.437 -7,4 -0.438,0.065 -7.87424,1.03116 -11.16726,-0.72103 -2.77877,-1.47856 -4.4773,-4.60529 -5.769419,-7.47551 C 98.058324,140.96036 97.32349,137.14769 97.5,133.5 c -0.0141,-3.975 1.3193,-7.308 4,-10 6.868,-6.226 14.035,-6.559 21.5,-1 5.781,8.514 5.948,17.18 0.5,26 z"
       id="path54"
       sodipodi:nodetypes="ccaacccc"
       inkscape:label="pupil" />
  </g>
  <path
     style="shape-rendering:geometricPrecision;text-rendering:geometricPrecision;image-rendering:optimizeQuality;fill-rule:evenodd;clip-rule:evenodd;opacity:1"
     fill="#dca39e"
     d="M 146.5,156.5 C 152.287,156.085 157.787,157.085 163,159.5C 162.687,163.963 160.854,167.796 157.5,171C 153.617,169.529 149.617,169.029 145.5,169.5C 144.305,166.276 142.971,163.109 141.5,160C 141.645,159.228 141.978,158.561 142.5,158C 144.058,157.79 145.391,157.29 146.5,156.5 Z"
     id="path82"
     inkscape:label="nose" />
  <g
     id="g112"
     inkscape:label="chin">
    <path
       style="shape-rendering:geometricPrecision;text-rendering:geometricPrecision;image-rendering:optimizeQuality;fill-rule:evenodd;clip-rule:evenodd;opacity:1"
       fill="#bfbcbd"
       d="m 161.5,247.5 c -1.302,5.566 -2.969,10.899 -5,16 -10.63029,-9.61182 -16.82568,-47.54162 -26,-59 l -17.01912,-6.75747 c 16.25246,2.62838 29.66574,-0.49723 34.98686,-3.44205 3.15306,-1.74497 6.76404,8.36619 27.93549,5.59438 -0.746,2.313 -6.05358,5.20103 -19.90323,9.10514 1.632,12.858 3.299,25.691 5,38.5 z"
       id="path102"
       sodipodi:nodetypes="ccccsccc"
       inkscape:label="lower" />
    <path
       style="opacity:1"
       fill="#c3c8ca"
       d="m 59.289725,179.94743 c 1.6992,-0.16 5.576175,0.55857 7.210275,1.05257 22.1064,13.192 46.106,18.859 72,17 4.23,-0.533 8.063,-2.033 11.5,-4.5 6.515,5.34 14.015,7.673 22.5,7 18.776,-1.194 36.776,-5.528 54,-13 -8.903,5.035 -18.07,9.702 -27.5,14 -0.667,1 -0.667,2 0,3 2.001,2.831 4.167,5.497 6.5,8 -11.724,1.398 -23.391,3.232 -35,5.5 -2.474,10.08 -5.474,19.913 -9,29.5 -21.90358,-13.85201 -24.16822,-43.77979 -35,-42 -10.047,-2.015 -20.047,-4.515 -30,-7.5 -11.7378,-5.869 -25.614675,-12.25457 -37.210275,-18.05257 z"
       id="path110"
       sodipodi:nodetypes="cccccccccccccc"
       inkscape:label="higher" />
  </g>
  <g
     id="g88"
     style="shape-rendering:geometricPrecision;text-rendering:geometricPrecision;image-rendering:optimizeQuality;fill-rule:evenodd;clip-rule:evenodd"
     inkscape:label="whiskers">
    <path
       style="shape-rendering:geometricPrecision;text-rendering:geometricPrecision;image-rendering:optimizeQuality;fill-rule:evenodd;clip-rule:evenodd;opacity:1"
       fill="#647782"
       d="m 248.21919,164.10927 c 1.51329,-0.002 4.6977,1.80595 4.78305,2.36512 0.24317,1.59305 -0.9274,2.77329 -1.68646,3.27593 -1.08318,0.71727 -10.99078,-0.0313 -9.81578,-0.25029 -4.184,0.666 -8.518,1.333 -13,2 5.511,2.492 11.17654,5.26851 16.33154,8.11051 -1.74531,1.69269 -0.75898,1.14158 -3.17652,2.65771 C 233.90802,179.56522 224.087,174.797 216.5,171.5 c -1.4,-2.282 -0.734,-3.782 2,-4.5 9.33,-0.944 20.38219,-2.16873 29.71919,-2.89073 z"
       id="path90"
       sodipodi:nodetypes="cssccccccc"
       inkscape:label="right-bottom" />
    <path
       style="shape-rendering:geometricPrecision;text-rendering:geometricPrecision;image-rendering:optimizeQuality;fill-rule:evenodd;clip-rule:evenodd;opacity:1"
       fill="#5d7286"
       d="m 247.23029,159.46865 c 0.77738,2.58579 2.29259,4.49783 0.27671,4.9237 C 236.593,157.16335 225.586,152.938 212.5,152.5 c -0.219,-1.175 0.114,-2.175 1,-3 6.919,-2.493 13.919,-2.659 21,-0.5 7.153,3.998 7.88329,4.13365 12.73029,10.46865 z"
       id="path78"
       sodipodi:nodetypes="cccccc"
       inkscape:label="right-top" />
    <path
       style="opacity:1"
       fill="#657983"
       d="m 52.5,162.5 c 9.369914,0.10128 18.6539,1.732 28,2.5 2.3633,0.589 3.3633,2.089 3,4.5 -8.2418,2.471 -16.2418,5.638 -24,9.5 0.556,0.383 0.8893,0.883 1,1.5 -2.4674,-0.255 -4.4674,-1.255 -6,-3 4.8117,-3.34 10.1451,-5.84 16,-7.5 -5.4363,-1.011 -17.731966,-1.78874 -22.962366,-2.44474 -0.548329,-1.74551 -1.532201,-2.90736 -1.901732,-4.5917 C 46.964165,162.59207 50.206889,162.47521 52.5,162.5 Z"
       id="path86"
       sodipodi:nodetypes="acccccccca"
       inkscape:label="left-bottom" />
    <path
       style="shape-rendering:geometricPrecision;text-rendering:geometricPrecision;image-rendering:optimizeQuality;fill-rule:evenodd;clip-rule:evenodd;opacity:1"
       fill="#5c7085"
       d="M 46.886798,162.77628 C 49.294998,160.18328 51.2415,157.073 53.5,154 c 5.8758,-5.604 12.8758,-8.438 21,-8.5 4.4058,-0.408 8.4058,0.592 12,3 -12.8503,1.789 -27.115832,6.89682 -38.265532,14.10782 -1.831719,0.77559 -0.08245,-0.0451 -1.34767,0.16846 z"
       id="path74"
       sodipodi:nodetypes="cccccc"
       inkscape:label="left-top" />
  </g>
  <path
     style="shape-rendering:geometricPrecision;text-rendering:geometricPrecision;image-rendering:optimizeQuality;fill-rule:evenodd;clip-rule:evenodd;opacity:1"
     fill="#bfc1c3"
     d="m 245.5,350.5 c -3.689,5.416 -8.856,7.416 -15.5,6 -17.621,-0.514 -35.121,-1.847 -52.5,-4 0.165,-3.018 -2.87536,-6.018 -3.37336,-9 -6.221,-20.158 -11.05791,-41.15508 -15.83691,-61.66308 7.351,1.932 16.56127,1.76208 23.21027,-1.83692 7.094,-7.246 12.76,-15.413 17,-24.5 0.333,0.833 0.667,1.667 1,2.5 -3.419,11.339 -8.586,21.839 -15.5,31.5 -10.985,20.402 -7.819,38.236 9.5,53.5 16.445,8.253 33.779,10.753 52,7.5 z"
     id="path158"
     sodipodi:nodetypes="ccccccccccc"
     inkscape:label="body" />
  <g
     id="g116"
     inkscape:label="book"
     style="shape-rendering:geometricPrecision;text-rendering:geometricPrecision;image-rendering:optimizeQuality;fill-rule:evenodd;clip-rule:evenodd">
    <path
       style="clip-rule:evenodd;opacity:1;fill-rule:evenodd;image-rendering:optimizeQuality;shape-rendering:geometricPrecision;text-rendering:geometricPrecision"
       fill="#fbfbf9"
       d="m 29.18742,227.24968 c 13.3464,3.69 23.16939,8.25162 29.15629,20.56162 14.427211,32.799 30.763698,75.30179 36.03177,107.15757 -11.1277,1.579 -25.5868,2.246 -37.1258,2 C 44.753363,316.22758 28.812733,272.6461 15.9371,237.34371 c 1.261,-6.327 6.51132,-10.42103 13.25032,-10.09403 z"
       id="path126"
       sodipodi:nodetypes="cccccc"
       inkscape:label="left-page" />
    <path
       style="shape-rendering:geometricPrecision;text-rendering:geometricPrecision;image-rendering:optimizeQuality;fill-rule:evenodd;clip-rule:evenodd;opacity:1"
       fill="#c5baa8"
       d="m 92.5,354.5 c 0.9013,0.79 1.5679,1.79 2,3 -10.5221,0.729 -21.0221,1.729 -31.5,3 -5.175733,-0.9954 -8.923664,-0.0414 -5.12516,-4.31258 C 69.41384,356.43342 81.3723,356.079 92.5,354.5 Z"
       id="path174"
       sodipodi:nodetypes="ccccc"
       inkscape:label="left-bottom" />
    <path
       style="shape-rendering:geometricPrecision;text-rendering:geometricPrecision;image-rendering:optimizeQuality;fill-rule:evenodd;clip-rule:evenodd;opacity:1"
       fill="#e3a963"
       d="m 17.5,237.03113 c 12.235468,35.71896 42.533051,122.03433 42.533051,122.03433 0,0 -3.643034,3.12389 -6.65629,-4.3113 -3.013256,-7.43519 -40.074903,-114.67998 -41.251601,-118.94158 3.13287,-4.53938 4.539065,-1.41754 5.37484,1.21855 z"
       id="path154"
       sodipodi:nodetypes="cczcc"
       inkscape:label="left" />
    <path
       style="clip-rule:evenodd;opacity:1;fill-rule:evenodd;image-rendering:optimizeQuality;shape-rendering:geometricPrecision;text-rendering:geometricPrecision"
       fill="#e6c98c"
       d="m 22.5,227.5 c 2.5593,-0.302 4.8926,0.032 7,1 -7.05158,1.07961 -10.739,2.673 -12,9 -0.5221,-1.719 -1.5221,-3.052 -3,-4 2.3003,-2.484 4.9669,-4.484 8,-6 z"
       id="path122"
       inkscape:label="left-top"
       sodipodi:nodetypes="ccccc" />
    <path
       style="shape-rendering:geometricPrecision;text-rendering:geometricPrecision;image-rendering:optimizeQuality;fill-rule:evenodd;clip-rule:evenodd;opacity:1"
       fill="#cca265"
       d="m 62.5,246.5 c 0.240542,2.92429 0.113804,4.14644 -4,6 -5.9869,-12.31 -15.6536,-20.31 -29,-24 -2.1074,-0.968 -4.4407,-1.302 -7,-1 0.1107,-0.617 0.444,-1.117 1,-1.5 8.9188,-1.693 16.5854,0.64 23,7 4.3333,4.333 8.6667,8.667 13,13 0.948,0.483 1.948,0.649 3,0.5 z"
       id="path130"
       sodipodi:nodetypes="cccccccc"
       inkscape:label="left-middle" />
    <path
       style="clip-rule:evenodd;display:inline;opacity:1;fill-rule:evenodd;image-rendering:optimizeQuality;shape-rendering:geometricPrecision;text-rendering:geometricPrecision"
       fill="#e09047"
       d="m 60.5,248.5 c 6.645565,3.03712 37.65642,81.64731 39.69126,108.75865 -2.549843,1.04791 -6.501918,1.12195 -6.501918,1.12195 L 56.56226,248.84371 c 0,0 2.88574,-0.49271 3.93774,-0.34371 z"
       id="path146"
       sodipodi:nodetypes="ccccc"
       inkscape:label="middle" />
    <path
       style="opacity:1"
       fill="#f89340"
       d="m 132.5,351.5 c -11.61848,0.9179 -24.88527,4.06941 -34.40661,6.21855 C 85.469995,296.44918 60.855306,250.89199 60.5,248.24968 c 4.80189,-4.37587 9.16745,-9.7324 14.09403,-13.81386 C 79.857619,230.12509 85.658283,226.48742 91.5,223 c 7.10501,-4.24159 14.30477,-8.45768 22,-11.5 6.96199,-2.75243 21.6374,-6.01912 21.6374,-6.01912 l 40.26857,146.92573 c 0,0 -28.64522,-2.03326 -42.90597,-0.90661 z"
       id="path114"
       sodipodi:nodetypes="acccaacca"
       inkscape:label="inside" />
    <path
       style="clip-rule:evenodd;opacity:1;fill-rule:evenodd;image-rendering:optimizeQuality;shape-rendering:geometricPrecision;text-rendering:geometricPrecision"
       fill="#da8c3d"
       d="m 177,343.5 c 0.498,2.982 0.665,5.982 0.5,9 h -4 c -12.20184,-42.60941 -29.48725,-103.80622 -39.77897,-146.32616 8.64788,-3.90892 9.48635,1.99724 10.27897,5.32616 10.9283,44.26758 24.12371,90.75326 33,132 z"
       id="path118"
       sodipodi:nodetypes="cccccc"
       inkscape:label="outside" />
  </g>
  <g
     id="g108"
     inkscape:label="body"
     style="shape-rendering:geometricPrecision;text-rendering:geometricPrecision;image-rendering:optimizeQuality;fill-rule:evenodd;clip-rule:evenodd">
    <path
       style="opacity:1"
       fill="#f9fbfa"
       d="m 253.5,344.5 c -2.402,2.409 -5.069,4.409 -8,6 -18.221,3.253 -35.555,0.753 -52,-7.5 -17.319,-15.264 -20.485,-33.098 -9.5,-53.5 6.914,-9.661 12.081,-20.161 15.5,-31.5 -0.333,-0.833 -0.667,-1.667 -1,-2.5 -4.24,9.087 -9.906,17.254 -17,24.5 -6.649,3.599 -16.61851,4.432 -21,2.5 -4.24669,-2.90121 -6.283,-11.813 -4,-19 2.031,-5.101 3.698,-10.434 5,-16 3.526,-9.587 5.90084,-21.92064 9,-29.5 7.54546,-2.58058 23.276,-4.102 35,-5.5 9.38507,15.69642 15.06263,26.72713 22.06226,40.37228 7.53251,14.68394 14.36644,27.19874 21.43774,44.62772 8.044,-8.287 11.877,-18.287 11.5,-30 -2.199,-16.155 -4.199,-32.321 -6,-48.5 -0.666,-10.336 1.834,-19.836 7.5,-28.5 6.965,-9.302 15.465,-16.802 25.5,-22.5 6.424,-2.585 12.257,-1.752 17.5,2.5 1.581,5.562 -1.28819,10.0094 -4.5,13.5 -3.43781,3.73621 -10.61036,2.22003 -14,6 -6.86367,7.65405 -9.781,18.443 -9,29.5 1.525,16.842 3.192,33.676 5,50.5 -1.218,28.247 -10.885,53.08 -29,74.5 z"
       id="path106"
       sodipodi:nodetypes="ccccccccccccaccccccaaccc"
       inkscape:label="arm" />
  </g>
</svg>
